<svg width="60" height="58" viewBox="0 0 60 58" fill="none" xmlns="http://www.w3.org/2000/svg">
<path d="M3.88076 0.209393C2.57964 0.678265 1.48952 1.66289 0.797931 2.97573C-0.0577581 4.59333 0.00085076 3.25705 0.00085076 22.891C0.00085076 42.525 -0.0577581 41.1887 0.797931 42.8063C1.50124 44.1426 2.60308 45.1155 3.96281 45.5844C4.5489 45.7836 4.99432 45.8071 8.8039 45.8071H13.0003L13.3051 45.5375C13.5395 45.3499 13.6333 45.1272 13.6802 44.7404C13.7388 44.2598 13.7036 44.1543 13.3871 43.8027L13.0355 43.4041L8.88595 43.3455C4.83022 43.2869 4.73645 43.2869 4.31446 43.0173C3.71665 42.6539 3.18917 42.0092 2.8258 41.2356L2.52103 40.5909L2.48587 29.3028L2.46242 18.0265H27.8987H53.3349V23.946V29.8655H52.8074C52.1745 29.8655 51.6587 30.0647 51.1429 30.4984L50.7678 30.8149L49.7363 30.4047L48.7048 29.9944L48.6345 29.42C48.529 28.6347 48.2359 28.0603 47.685 27.5914C47.0169 27.0171 46.4659 26.8999 44.5905 26.9585C43.0549 26.9936 42.926 27.0171 42.3985 27.3218C41.6717 27.7556 41.1443 28.6347 41.1443 29.4318C41.1443 29.9241 41.1091 30.0061 40.8278 30.1234C40.6402 30.1937 40.1714 30.393 39.7728 30.5805C39.0695 30.897 39.0461 30.897 38.8468 30.6743C38.2138 29.971 36.7017 29.6662 35.7757 30.0413C35.2599 30.264 33.2438 32.2098 32.939 32.7959C32.4467 33.7688 32.5639 34.8941 33.2555 35.8084L33.6541 36.3359L33.2438 37.2854L32.8335 38.2465L32.2592 38.3169C31.4855 38.4224 30.9112 38.7037 30.4306 39.2429C29.8914 39.8407 29.7741 40.3213 29.7741 41.9623V43.3455H26.2576C22.366 43.3455 22.2136 43.3689 21.8502 44.0605C21.6275 44.4942 21.7096 45.0686 22.0261 45.4789L22.2488 45.7485L27.547 45.8071L32.8335 45.8657L33.2438 46.8855L33.6658 47.917L33.3376 48.2921C32.8687 48.8547 32.7046 49.3471 32.7046 50.1441C32.7046 51.1288 32.939 51.5156 34.3691 52.9105C35.4826 54.0006 35.635 54.1178 36.2328 54.2468C37.1003 54.4343 37.8973 54.2585 38.6241 53.7076C39.1398 53.309 39.1516 53.2973 39.5267 53.4966C39.7377 53.6021 40.1714 53.7779 40.4878 53.8951L41.0857 54.0944L41.156 54.7508C41.2498 55.583 41.7069 56.3801 42.3399 56.8021C42.8088 57.1069 42.8908 57.1186 44.696 57.1538C46.8645 57.2006 47.3334 57.0834 47.9546 56.3918C48.4352 55.8409 48.6462 55.3134 48.6462 54.6922V54.1881L49.7129 53.731L50.7796 53.2856L51.0843 53.5786C51.6587 54.1061 52.1627 54.2936 52.995 54.2936C53.6045 54.2936 53.8624 54.235 54.2844 53.9889C54.8939 53.6255 56.617 51.8907 56.8866 51.3632C57.3672 50.4255 57.2265 49.1947 56.5584 48.4093L56.1599 47.9522L56.5936 46.8738L57.0155 45.8071H57.5547C58.5863 45.7954 59.6178 45.0452 59.8991 44.084C59.9812 43.8027 60.0163 42.9352 59.9929 41.81C59.9577 40.0048 59.9577 39.9814 59.6178 39.489C59.1723 38.8561 58.4339 38.4224 57.6368 38.3403L57.0155 38.2817L56.5936 37.2854L56.1716 36.289L56.5701 35.7732C57.0507 35.1403 57.25 34.4487 57.1679 33.7102C57.0859 33.0303 56.8983 32.6553 56.2771 31.9519L55.7965 31.4127V18.5305C55.7965 7.62927 55.7613 5.53108 55.6207 4.83949C55.2104 2.89368 54.0148 1.26435 52.4206 0.478992L51.5298 0.0335655L28.0276 0.0101242C4.93572 -0.0133209 4.50201 -0.0133209 3.88076 0.209393ZM51.4243 2.78818C52.1276 3.18672 52.4909 3.62043 52.9481 4.60506L53.2763 5.30836L53.3115 10.4308L53.3466 15.5649H27.8987H2.4507L2.48587 10.3722L2.52103 5.19115L2.86096 4.46439C3.22434 3.67904 3.96281 2.88196 4.60751 2.61235C4.92399 2.47169 8.60463 2.44825 27.8987 2.43653H50.8147L51.4243 2.78818ZM46.1846 30.4516C46.2667 31.9051 46.2667 31.9051 48.0015 32.4443C48.4586 32.5849 49.2088 32.9131 49.6777 33.1593C50.9437 33.8391 51.3305 33.804 52.2682 32.9483L52.995 32.2919L53.8741 33.1593L54.7415 34.015L54.1672 34.6128C53.1474 35.656 53.1239 35.9022 53.8507 37.344C54.132 37.9183 54.4836 38.774 54.6243 39.2546C55.0111 40.5206 55.2104 40.6964 56.4763 40.7667L57.4961 40.8253L57.5313 42.0796L57.5665 43.3455H56.6522C55.2338 43.3455 55.0463 43.5213 54.554 45.1507C54.4368 45.5375 54.1203 46.2877 53.8389 46.8269C53.1239 48.21 53.1474 48.4445 54.0499 49.3939L54.7767 50.1324L53.9796 50.9647C53.5342 51.4101 53.1005 51.7852 53.0067 51.7852C52.9129 51.7852 52.5261 51.4921 52.151 51.1405C51.307 50.3434 50.9554 50.2965 49.877 50.8943C49.4902 51.117 48.611 51.4921 47.9429 51.7149C46.3253 52.2658 46.255 52.3478 46.1963 53.6724L46.1612 54.7273L44.907 54.6922L43.6644 54.657L43.6058 53.6372C43.5355 52.3713 43.3597 52.172 42.1054 51.7969C41.6366 51.6562 40.7926 51.3046 40.2417 51.0233C38.7999 50.2731 38.5186 50.2965 37.5808 51.1991L36.8541 51.8907L36.0101 51.0467C35.5413 50.5778 35.1662 50.1441 35.1662 50.0855C35.1662 50.0269 35.4592 49.6753 35.8226 49.3119C36.6783 48.4562 36.7017 48.1163 36.0101 46.862C35.7523 46.3814 35.4006 45.5258 35.2248 44.9631C34.7911 43.5799 34.6152 43.4276 33.3141 43.3455L32.2943 43.2869V42.0561V40.8253L33.3024 40.7902C34.5918 40.7433 34.8028 40.5792 35.1662 39.3484C35.3068 38.8678 35.6585 38.0121 35.9398 37.4495C36.6548 36.0077 36.6431 35.7146 35.8109 34.8121C35.4592 34.4252 35.1662 34.0619 35.1662 34.0033C35.1662 33.9446 35.5295 33.5344 35.975 33.1007L36.7955 32.2919L37.4988 32.9483C38.5069 33.8743 38.7061 33.8978 40.1596 33.171C40.7926 32.8428 41.6952 32.4677 42.1523 32.3388C43.3245 31.9988 43.5355 31.741 43.5824 30.5922C43.6058 30.0999 43.641 29.6193 43.6644 29.5373C43.7113 29.4318 44.0278 29.3966 44.9187 29.42L46.126 29.4552L46.1846 30.4516Z" fill="#FF912B"/>
<path d="M9.48367 5.2849C8.21772 5.8241 7.42064 6.7384 7.08071 8.05123C6.62356 9.87983 7.50269 11.8022 9.20235 12.6462C9.70638 12.8923 9.95254 12.9275 10.9606 12.9275C11.9452 12.9275 12.2266 12.8806 12.672 12.6579C13.5394 12.2359 14.1372 11.6381 14.5592 10.7824C14.9108 10.0791 14.946 9.90327 14.946 9.0007C14.9343 8.22706 14.8757 7.87541 14.6764 7.42998C14.2779 6.55085 13.6918 5.91787 12.8713 5.48417C12.2266 5.13251 12.0038 5.08563 11.1364 5.05046C10.2925 5.0153 10.0346 5.05046 9.48367 5.2849ZM11.7342 7.74647C11.957 7.88713 12.2266 8.21534 12.3555 8.4615C12.6251 9.02414 12.4844 9.59851 11.957 10.1143C11.6405 10.419 11.4998 10.4659 10.9606 10.4659C10.4214 10.4659 10.2807 10.419 9.97598 10.126C9.54228 9.704 9.35473 9.12964 9.49539 8.63732C9.62433 8.1919 9.80016 7.96918 10.2573 7.68786C10.7262 7.40654 11.2537 7.41826 11.7342 7.74647Z" fill="#FF912B"/>
<path d="M19.9279 5.21467C18.873 5.57804 18.1579 6.23446 17.5718 7.35975C17.3374 7.80518 17.3022 8.06306 17.2905 9.0008C17.2905 10.3488 17.5367 10.9583 18.4627 11.8844C19.3067 12.7283 20.1272 13.0214 21.4518 12.9628C22.6239 12.9041 23.339 12.5994 24.1243 11.8023C26.5976 9.29384 24.769 4.99195 21.2408 5.0154C20.8071 5.02712 20.221 5.10917 19.9279 5.21467ZM21.9323 7.65279C22.6943 8.05133 22.999 9.23523 22.495 9.86821C21.7565 10.806 20.3734 10.6887 19.881 9.65722C19.6466 9.1649 19.6466 8.84841 19.8576 8.43815C20.303 7.58246 21.1587 7.25425 21.9323 7.65279Z" fill="#FF912B"/>
<path d="M33.9119 5.17946C32.7983 5.53111 31.8254 6.45713 31.4034 7.58242C31.0752 8.47328 31.1221 9.97366 31.5206 10.759C31.884 11.4741 32.6342 12.236 33.3492 12.6111L33.9353 12.9276L40.1479 12.9627C47.0637 12.9979 46.9934 13.0096 48.0835 12.2125C49.2088 11.3803 49.8652 9.75095 49.6073 8.39123C49.3495 7.00806 48.5641 5.9531 47.3568 5.37873L46.7121 5.07396L40.5581 5.05052C35.7405 5.0388 34.2987 5.06224 33.9119 5.17946ZM46.3018 7.65275C47.4271 8.22712 47.4271 9.77439 46.3018 10.3488C46.0205 10.5011 45.0827 10.5246 40.3823 10.5246C34.2284 10.5246 34.3339 10.5363 33.8767 9.78612C33.4196 9.03592 33.7243 7.98096 34.498 7.65275C35.0723 7.39488 45.8095 7.39488 46.3018 7.65275Z" fill="#FF912B"/>
<path d="M43.3713 34.9645C42.0819 35.2575 40.7456 35.996 39.7962 36.9572C36.7485 39.9931 36.9712 44.928 40.2885 47.6943C41.027 48.3155 42.5391 49.0423 43.4651 49.2181C44.4614 49.4057 46.2783 49.3002 47.2512 48.9837C49.2674 48.3507 51.0491 46.5807 51.7758 44.5177C52.1744 43.3572 52.2798 41.5286 51.9985 40.4151C51.3773 37.9535 49.5252 35.9374 47.1809 35.1872C45.997 34.8121 44.4497 34.7183 43.3713 34.9645ZM45.7274 37.3674C47.2395 37.6487 48.5054 38.6216 49.197 40.04C49.619 40.8839 49.6425 40.9894 49.6425 42.0444C49.6307 43.6268 49.3494 44.3067 48.2476 45.4085C47.1457 46.5104 46.4659 46.7917 44.8951 46.8034C43.8871 46.8034 43.7112 46.7683 42.9962 46.4283C40.9918 45.4789 39.8313 43.3807 40.1947 41.3763C40.5698 39.3718 41.9412 37.9066 43.8988 37.4143C44.649 37.2268 44.9537 37.2268 45.7274 37.3674Z" fill="#FF912B"/>
<path d="M18.2282 24.8604C17.9469 25.0948 17.7945 25.6223 16.7044 30.2172C16.0246 33.0187 15.4736 35.492 15.4736 35.703C15.4736 36.8635 17.396 37.2268 17.818 36.1484C17.8766 35.9961 18.451 33.64 19.1074 30.9088C20.3851 25.5754 20.4085 25.3292 19.8693 24.8487C19.4473 24.497 18.6502 24.497 18.2282 24.8604Z" fill="#FF912B"/>
<path d="M10.8317 25.5166C10.5035 25.6573 7.33862 29.1152 6.90491 29.8068C6.58843 30.3225 6.60015 31.2603 6.94008 31.694C7.61994 32.5614 10.3628 35.5739 10.6442 35.7497C11.1599 36.0896 11.6874 36.0193 12.1445 35.5622C12.5783 35.1285 12.6603 34.6479 12.4024 34.1673C12.3321 34.0266 11.6405 33.2178 10.8786 32.3621C10.1167 31.5181 9.49542 30.768 9.49542 30.7093C9.49542 30.6507 10.105 29.924 10.8552 29.0917C12.3907 27.3686 12.6134 27.017 12.4962 26.4426C12.3673 25.7159 11.4998 25.2353 10.8317 25.5166Z" fill="#FF912B"/>
<path d="M23.9601 25.5167C23.5381 25.7043 23.2099 26.2201 23.2099 26.7124C23.2099 27.193 23.1513 27.1226 25.5895 29.8538C25.9528 30.2758 26.2576 30.6626 26.2576 30.7095C26.2576 30.7564 25.6363 31.4949 24.8744 32.3505C24.1008 33.2062 23.4209 34.0268 23.3506 34.1674C22.788 35.2107 24.0187 36.3946 25.0385 35.8085C25.3316 35.6444 28.5433 32.0692 28.8481 31.5652C29.106 31.1666 29.1411 30.2875 28.9184 29.9124C28.7661 29.6311 25.7653 26.2318 25.2847 25.7863C24.9682 25.4933 24.3352 25.3644 23.9601 25.5167Z" fill="#FF912B"/>
<path d="M17.185 43.5214C16.6927 43.7793 16.5403 44.0489 16.5286 44.6115C16.5286 45.3383 16.9974 45.8071 17.7476 45.8071C18.4744 45.8071 18.8729 45.4555 18.955 44.7404C19.0136 44.2716 18.9784 44.1544 18.6854 43.8261C18.2751 43.369 17.6773 43.2518 17.185 43.5214Z" fill="#FF912B"/>
</svg>
