<svg width="50" height="50" viewBox="0 0 50 50" fill="none" xmlns="http://www.w3.org/2000/svg">
<path d="M1.85708 0.162613C1.58371 0.260242 1.21272 0.523842 0.871019 0.865547C-0.0857509 1.83208 0.00211569 -0.716053 0.00211569 24.9898C0.00211569 50.6957 -0.0857509 48.1476 0.871019 49.1141C1.82779 50.0709 -0.0271735 49.983 19.7233 49.983C39.4738 49.983 37.6188 50.0709 38.5756 49.1141C39.5323 48.1476 39.4445 50.6957 39.4445 24.9898C39.4445 -0.716053 39.5323 1.83208 38.5756 0.865547C37.6188 -0.0912247 39.4738 -0.00335693 19.6842 0.00640488C4.07327 0.00640488 2.2476 0.0259323 1.85708 0.162613ZM36.9744 2.20307C37.1209 2.31046 37.2966 2.55454 37.365 2.74003C37.5309 3.21842 37.5309 46.7612 37.365 47.2396C37.2966 47.4251 37.1209 47.6692 36.9744 47.7766L36.7011 47.9816H19.7233H2.74551L2.47214 47.7766C2.3257 47.6692 2.1402 47.4056 2.07186 47.2005C1.97423 46.9174 1.95471 42.2995 1.97423 24.7946L2.00352 2.74003L2.20854 2.46667C2.31594 2.32023 2.56001 2.14449 2.74551 2.07615C2.99934 1.98829 7.02168 1.959 19.8893 1.97852L36.7011 1.99805L36.9744 2.20307Z" fill="#6c90dc"/>
<path d="M18.0246 7.86545C17.8196 8.07047 17.7708 8.21691 17.7708 8.5879C17.7708 8.9589 17.8196 9.10534 18.0246 9.31036L18.2882 9.5642H21.9591C26.0302 9.5642 25.9521 9.57396 26.1669 8.92961C26.2548 8.67577 26.2548 8.50004 26.1669 8.2462C25.9521 7.60185 26.0302 7.61161 21.9591 7.61161H18.2882L18.0246 7.86545Z" fill="#6c90dc"/>
<path d="M28.9884 7.89474C28.7639 8.11929 28.7053 8.26574 28.7053 8.58791C28.7053 8.91009 28.7639 9.05654 28.9884 9.28108L29.2716 9.56421H31.4682H33.6551L33.9187 9.31037C34.28 8.93938 34.28 8.23645 33.9187 7.86545L33.6551 7.61162H31.4682H29.2716L28.9884 7.89474Z" fill="#6c90dc"/>
<path d="M12.2059 9.64231C12.0497 9.66184 11.2784 10.3648 10.1361 11.4973L8.31045 13.3034L7.51965 12.5614C6.77767 11.839 6.71909 11.8097 6.27975 11.8097C5.91853 11.8097 5.76232 11.8585 5.54753 12.0733C5.32298 12.2881 5.27417 12.415 5.27417 12.825V13.3034L6.52383 14.5628L7.78325 15.8125H8.30069H8.81812L10.9562 13.6842C12.1375 12.5224 13.1919 11.4485 13.2896 11.302C13.5141 10.9896 13.5532 10.3745 13.3677 10.0719C13.1626 9.73994 12.6647 9.55444 12.2059 9.64231Z" fill="#6c90dc"/>
<path d="M18.0246 14.1137C17.8196 14.3188 17.7708 14.4652 17.7708 14.8362C17.7708 15.2072 17.8196 15.3536 18.0246 15.5587L18.2882 15.8125H25.9716H33.6551L33.9187 15.5587C34.2799 15.1877 34.2799 14.4847 33.9187 14.1137L33.6551 13.8599H25.9716H18.2882L18.0246 14.1137Z" fill="#6c90dc"/>
<path d="M5.52801 21.143C5.32298 21.3578 5.27417 21.4945 5.27417 21.885V22.3732L6.56288 23.6814L7.84183 24.9896L6.56288 26.2979L5.27417 27.6061V28.0943C5.27417 28.7679 5.59635 29.0901 6.26999 29.0901H6.75814L8.06638 27.8014L9.37461 26.5224L10.6828 27.8014L11.9911 29.0901H12.4792C13.1529 29.0901 13.4751 28.7679 13.4751 28.0943V27.6061L12.1863 26.2979L10.9074 24.9896L12.1863 23.6814L13.4751 22.3732V21.885C13.4751 21.2114 13.1529 20.8892 12.4792 20.8892H11.9911L10.6828 22.1779L9.37461 23.4569L8.06638 22.1779L6.75814 20.8892H6.26999C5.87947 20.8892 5.74279 20.938 5.52801 21.143Z" fill="#6c90dc"/>
<path d="M18.0246 21.143C17.8196 21.3481 17.7708 21.4945 17.7708 21.8655C17.7708 22.2365 17.8196 22.3829 18.0246 22.588L18.2882 22.8418H21.9591C26.0302 22.8418 25.9521 22.8516 26.1669 22.2072C26.2548 21.9534 26.2548 21.7776 26.1669 21.5238C25.9521 20.8794 26.0302 20.8892 21.9591 20.8892H18.2882L18.0246 21.143Z" fill="#6c90dc"/>
<path d="M28.9884 21.1723C28.7639 21.3969 28.7053 21.5433 28.7053 21.8655C28.7053 22.1877 28.7639 22.3341 28.9884 22.5587L29.2716 22.8418H31.4682H33.6551L33.9187 22.588C34.28 22.217 34.28 21.514 33.9187 21.143L33.6551 20.8892H31.4682H29.2716L28.9884 21.1723Z" fill="#6c90dc"/>
<path d="M18.0246 27.3913C17.8196 27.5964 17.7708 27.7428 17.7708 28.1138C17.7708 28.4848 17.8196 28.6312 18.0246 28.8363L18.2882 29.0901H25.9716H33.6551L33.9187 28.8363C34.2799 28.4653 34.2799 27.7623 33.9187 27.3913L33.6551 27.1375H25.9716H18.2882L18.0246 27.3913Z" fill="#6c90dc"/>
<path d="M5.52801 34.4209C5.32298 34.6357 5.27417 34.7723 5.27417 35.1629V35.651L6.56288 36.9592L7.84183 38.2675L6.56288 39.5757L5.27417 40.884V41.3721C5.27417 42.0457 5.59635 42.3679 6.26999 42.3679H6.75814L8.06638 41.0792L9.37461 39.8003L10.6828 41.0792L11.9911 42.3679H12.4792C13.1529 42.3679 13.4751 42.0457 13.4751 41.3721V40.884L12.1863 39.5757L10.9074 38.2675L12.1863 36.9592L13.4751 35.651V35.1629C13.4751 34.4892 13.1529 34.167 12.4792 34.167H11.9911L10.6828 35.4557L9.37461 36.7347L8.06638 35.4557L6.75814 34.167H6.26999C5.87947 34.167 5.74279 34.2158 5.52801 34.4209Z" fill="#6c90dc"/>
<path d="M18.0246 34.4209C17.8196 34.6259 17.7708 34.7723 17.7708 35.1433C17.7708 35.5143 17.8196 35.6608 18.0246 35.8658L18.2882 36.1196H21.9591C26.0302 36.1196 25.9521 36.1294 26.1669 35.485C26.2548 35.2312 26.2548 35.0555 26.1669 34.8016C25.9521 34.1573 26.0302 34.167 21.9591 34.167H18.2882L18.0246 34.4209Z" fill="#6c90dc"/>
<path d="M28.9884 34.4502C28.7639 34.6747 28.7053 34.8212 28.7053 35.1433C28.7053 35.4655 28.7639 35.612 28.9884 35.8365L29.2716 36.1196H31.4682H33.6551L33.9187 35.8658C34.28 35.4948 34.28 34.7919 33.9187 34.4209L33.6551 34.167H31.4682H29.2716L28.9884 34.4502Z" fill="#6c90dc"/>
<path d="M18.0246 40.6692C17.8196 40.8742 17.7708 41.0206 17.7708 41.3916C17.7708 41.7626 17.8196 41.9091 18.0246 42.1141L18.2882 42.3679H25.9716H33.6551L33.9187 42.1141C34.2799 41.7431 34.2799 41.0402 33.9187 40.6692L33.6551 40.4153H25.9716H18.2882L18.0246 40.6692Z" fill="#6c90dc"/>
<path d="M44.8727 5.50288C43.8573 5.93245 43.1446 6.66467 42.7736 7.66049C42.5686 8.19745 42.5686 8.34389 42.5686 15.9492V23.6913L42.8224 23.9549C43.1934 24.3161 43.8964 24.3161 44.2674 23.9549L44.5212 23.6913V17.9018V12.1026H46.2785H48.0359V26.9911V41.8797H46.2785H44.5212V36.7151V31.5602L44.2674 31.2966C43.8964 30.9354 43.1934 30.9354 42.8224 31.2966L42.5686 31.5602V37.4277V43.3051L43.9745 46.4194C44.7457 48.1377 45.478 49.6412 45.5951 49.7584C45.8978 50.0805 46.6593 50.0805 46.9619 49.7584C47.0791 49.6314 47.8113 48.128 48.5826 46.4194L49.9885 43.3051L49.9689 25.6243L49.9396 7.95338L49.6272 7.30902C49.2465 6.53775 48.6314 5.94221 47.8601 5.58098C47.4013 5.3662 47.1377 5.31738 46.3762 5.28809C45.5756 5.26857 45.3706 5.29785 44.8727 5.50288ZM46.9912 7.45547C47.6551 7.72883 48.0359 8.51963 48.0359 9.61308V10.0524H46.2785H44.5212V9.61308C44.5212 8.16816 45.146 7.31879 46.2102 7.31879C46.464 7.31879 46.8155 7.37737 46.9912 7.45547ZM46.8838 45.1503C46.5812 45.8239 46.3078 46.3706 46.2785 46.3706C46.2492 46.3706 45.9759 45.8239 45.6732 45.1503L45.1265 43.9299H46.2785H47.4306L46.8838 45.1503Z" fill="#6c90dc"/>
<path d="M42.8224 26.9033C42.6174 27.1083 42.5686 27.2548 42.5686 27.6258C42.5686 27.9967 42.6174 28.1432 42.8224 28.3482C43.0275 28.5532 43.1739 28.6021 43.5449 28.6021C43.9159 28.6021 44.0623 28.5532 44.2674 28.3482C44.4724 28.1432 44.5212 27.9967 44.5212 27.6258C44.5212 27.2548 44.4724 27.1083 44.2674 26.9033C44.0623 26.6983 43.9159 26.6495 43.5449 26.6495C43.1739 26.6495 43.0275 26.6983 42.8224 26.9033Z" fill="#6c90dc"/>
</svg>
