<svg width="50" height="50" viewBox="0 0 50 50" fill="none" xmlns="http://www.w3.org/2000/svg">
<path d="M3.27725 3.27733V6.55459H2.45794H1.63863V5.32562V4.09665H0.819313H0V6.14493V8.19321H3.41039H6.82078L7.60937 9.5758C8.03951 10.3337 8.39796 11.0096 8.39796 11.071C8.39796 11.1325 8.2341 11.4602 8.03951 11.7879C6.88223 13.6826 5.97075 16.499 5.7864 18.6907C5.75568 19.0798 5.70447 19.6534 5.68399 19.9401L5.63278 20.4829H9.77031H13.9078L13.9693 20.2474C14 20.1245 14.0307 19.8582 14.0307 19.6534C14.0307 19.0184 14.5018 17.3798 14.932 16.5297C15.6182 15.1676 16.7242 13.8772 17.8405 13.1296C18.0556 12.9964 18.2297 12.8223 18.2297 12.7506C18.2297 12.6277 14.594 5.65334 14.4506 5.49972C14.2458 5.29489 11.1734 7.71187 10.18 8.84866C9.91369 9.16615 9.65765 9.42218 9.62693 9.42218C9.59621 9.42218 9.25824 8.87939 8.87931 8.21369L8.19313 7.00521V4.73161V2.45802H7.37382H6.55451V4.5063V6.55459H5.73519H4.91588V3.27733V8.01086e-05H4.09657H3.27725V3.27733ZM15.0651 10.4054L16.0278 12.2693L15.3314 12.9657C13.9795 14.3176 13.0168 16.0586 12.556 17.943L12.3409 18.8443H9.92393H7.50696L7.6401 17.9942C7.8142 16.9394 8.21362 15.5568 8.63351 14.5531L8.96124 13.7748L9.01245 14.4405C9.10462 15.6899 9.842 16.3863 11.0607 16.3863C12.3204 16.3863 13.109 15.5978 13.109 14.3278C13.109 13.7645 13.0578 13.5802 12.812 13.191C12.515 12.7199 11.8391 12.2898 11.4089 12.2898C11.2758 12.2898 11.1017 12.1054 10.8866 11.7265L10.5589 11.1632L11.0505 10.5692C11.583 9.94449 12.8325 8.71552 13.406 8.25466L13.7542 7.97814L13.9283 8.2649C14.0205 8.41852 14.5326 9.39146 15.0651 10.4054ZM11.3168 14.3381C11.3168 14.5224 11.2553 14.6043 11.0812 14.6248C10.8354 14.6658 10.692 14.4405 10.7945 14.1742C10.8252 14.082 10.9481 14.0308 11.0812 14.0513C11.2553 14.0718 11.3168 14.1537 11.3168 14.3381Z" fill="#FF912B"/>
<path d="M20.2372 3.43099C19.7353 3.51292 18.9775 3.67679 18.5473 3.78944C17.4617 4.0762 15.7719 4.72141 15.7719 4.83407C15.7719 4.93648 19.5203 11.8802 19.6534 12.0031C19.6944 12.0543 20.186 11.9723 20.739 11.829C26.3206 10.4054 31.8509 14.6453 31.8509 20.3498V21.3944L31.5232 21.4456C31.3389 21.4764 30.9087 21.5276 30.5708 21.5583C29.6798 21.6402 28.4713 21.9782 27.4574 22.4186C24.8356 23.5451 22.521 25.9211 21.4559 28.5839L21.1896 29.2701L20.6059 29.1165C19.6944 28.8912 18.0455 28.0309 17.2876 27.4061C15.9051 26.2591 14.8195 24.6102 14.3176 22.8794L14.1026 22.1216H9.91382H5.71484L5.78653 22.5517C6.32933 26.0031 7.37395 28.5327 9.27886 31.0111C9.63731 31.472 9.93431 31.8714 9.93431 31.8919C9.93431 31.9226 9.17644 32.5678 8.24447 33.3462L6.55464 34.7492V37.453V40.1465H7.37395H8.19327V37.9138V35.6915L9.43248 34.6673C10.1084 34.104 10.8048 33.5408 10.9584 33.4076L11.2452 33.1823L11.7982 33.6534C12.638 34.3806 14.3586 35.4969 15.4135 35.9987C17.0623 36.7873 19.1106 37.3813 21.1179 37.6373C21.5993 37.6988 21.5993 37.6988 22.0397 38.5181C23.4837 41.2218 26.1362 43.2701 29.2803 44.1099C30.1509 44.3454 30.4683 44.3762 32.0558 44.3864C33.5715 44.3864 33.9811 44.3557 34.7493 44.1611C35.6505 43.9358 37.197 43.3418 37.6271 43.0653C37.8524 42.9219 37.9753 43.0141 41.4471 46.2708C43.4135 48.1245 45.1853 49.7017 45.3798 49.7836C45.9738 50.0294 46.9673 49.968 47.633 49.6505C48.3601 49.2921 49.3842 48.2269 49.7324 47.4793C50.0807 46.7112 50.0909 45.7383 49.7529 45.1033C49.5891 44.7961 48.4215 43.6286 46.0046 41.3652C43.3111 38.8458 42.502 38.0367 42.5635 37.9036C42.8912 37.156 43.3418 35.6198 43.4852 34.8209C43.8232 32.8853 43.5466 30.4171 42.7888 28.5942C42.1845 27.1399 41.0272 25.4091 40.1055 24.6L39.7778 24.3132L39.9519 23.2379C40.2182 21.7119 40.2079 19.1413 39.9417 17.5539C39.3477 14.1026 37.6373 10.8048 35.1282 8.29567L34.5444 7.71191L35.5378 6.33955L36.521 4.96721L42.84 4.93648L49.1589 4.916V4.09669V3.27737H42.3586H35.5481L34.401 4.88527C33.7661 5.77628 33.2335 6.5239 33.2233 6.53414C33.213 6.55463 32.7419 6.28835 32.1889 5.94014C30.3967 4.81358 28.4405 4.01476 26.4435 3.57438C25.1223 3.28761 21.6095 3.20568 20.2372 3.43099ZM24.3337 5.05938C25.9621 5.16179 27.7441 5.64314 29.4749 6.46245C30.6322 7.00525 32.1787 7.97818 32.0967 8.11132C32.066 8.15229 31.7895 8.19325 31.472 8.19325C30.2942 8.19325 29.4954 9.02281 29.4954 10.2415C29.4954 11.5012 30.284 12.2898 31.5437 12.2898C32.3732 12.2898 32.957 11.9723 33.3462 11.3066C33.6022 10.8765 33.6125 10.7843 33.5613 10.006L33.51 9.16619L34.186 9.88309C36.3674 12.1874 37.7193 14.9116 38.2518 18.1069C38.3952 18.9365 38.4157 19.5612 38.385 20.9745C38.3542 21.968 38.303 22.8692 38.2518 22.9614C38.1904 23.115 38.1289 23.1048 37.6578 22.8385C36.6644 22.2854 35.4662 21.886 33.8275 21.5481C33.6022 21.5071 33.592 21.4661 33.592 20.3191C33.592 18.957 33.4076 17.9431 32.9365 16.6731C32.3835 15.1984 31.7383 14.2254 30.4683 12.9555C29.2087 11.6958 28.2255 11.0404 26.7507 10.4873C25.2555 9.9343 24.3747 9.80116 22.5415 9.86261C21.6607 9.89333 20.8517 9.94454 20.739 9.97526C20.5649 10.0265 20.3908 9.76019 19.4076 7.93722C18.7931 6.77994 18.2913 5.79676 18.3015 5.75579C18.363 5.45879 22.0089 4.87503 23.1969 4.98769C23.371 4.99793 23.8729 5.02866 24.3337 5.05938ZM31.7997 10.2415C31.7997 10.4259 31.7383 10.5078 31.5642 10.5283C31.431 10.5488 31.3081 10.4976 31.2774 10.4054C31.175 10.1391 31.3184 9.91381 31.5642 9.95478C31.7383 9.97526 31.7997 10.0572 31.7997 10.2415ZM34.2474 23.412C37.3813 24.1187 40.1772 26.5459 41.2628 29.5159C41.7441 30.8165 41.8261 31.3389 41.8261 32.9775C41.8261 34.8721 41.652 35.6402 40.8634 37.2277C39.6242 39.7471 37.2891 41.6724 34.5649 42.4098C33.4588 42.7171 30.919 42.7478 29.9051 42.4713C27.8465 41.908 26.4332 41.0784 25.0609 39.6446C20.5239 34.8926 21.8963 27.1808 27.8056 24.1903C28.5839 23.8012 29.9665 23.371 30.8268 23.2481C31.6973 23.1252 33.3155 23.2072 34.2474 23.412ZM12.8531 24.0367C12.976 24.5488 13.6929 25.9519 14.164 26.6278C15.5671 28.6044 17.8612 30.2225 20.0938 30.7961C20.7492 30.9702 20.78 30.9804 20.7083 31.2364C20.5751 31.7075 20.6468 34.4318 20.8107 35.1487C20.995 35.968 21.0872 35.927 19.6841 35.63C17.9226 35.2408 16.1304 34.5034 14.5942 33.51C13.7031 32.9365 12.5664 32.0455 12.638 31.9738C12.6688 31.9431 13.0272 31.9329 13.4266 31.9431C14.0411 31.9636 14.2152 31.9226 14.5942 31.6973C15.2496 31.3184 15.5671 30.7244 15.5671 29.9051C15.5671 28.6454 14.7785 27.8568 13.5188 27.8568C12.6892 27.8568 12.1055 28.1743 11.7266 28.8297C11.5012 29.2086 11.4603 29.3827 11.4808 29.9767C11.491 30.3659 11.4603 30.6732 11.3988 30.6936C11.1735 30.7756 9.78069 28.7683 9.07403 27.3549C8.64389 26.5151 8.0294 24.8356 7.84506 24.0367L7.78361 23.7602H10.2825H12.7814L12.8531 24.0367ZM13.7748 29.9051C13.7748 30.0894 13.7134 30.1713 13.5393 30.1918C13.2935 30.2328 13.1501 30.0075 13.2525 29.7412C13.2832 29.649 13.4061 29.5978 13.5393 29.6183C13.7134 29.6388 13.7748 29.7207 13.7748 29.9051ZM45.1443 43.0038C46.8341 44.5912 48.2372 45.9738 48.2679 46.0762C48.4523 46.7829 46.9365 48.3703 46.2504 48.1962C46.0865 48.1553 41.4369 43.9051 39.7471 42.246L39.3989 41.908L40.085 41.273C40.4537 40.9248 40.9248 40.4127 41.1297 40.1362L41.4983 39.6344L41.7953 39.8802C41.949 40.0133 43.4647 41.4164 45.1443 43.0038Z" fill="#FF912B"/>
<path d="M30.7037 24.5795C29.8332 24.7331 29.0446 24.9994 28.1127 25.4807C27.3548 25.8699 27.0066 26.1362 26.1566 26.976C25.3168 27.826 25.0505 28.1742 24.6613 28.9321C24.0366 30.1405 23.7601 31.1442 23.6884 32.4346C23.4631 36.4185 25.8288 39.8494 29.6489 41.0681C30.6116 41.3754 32.793 41.4676 33.8581 41.2422C36.91 40.597 39.2861 38.4156 40.2487 35.3842C40.5662 34.3805 40.6482 32.322 40.4126 31.1852C39.7264 27.8772 37.0637 25.2656 33.7147 24.6204C32.9056 24.4668 31.4923 24.4463 30.7037 24.5795ZM33.5406 26.3717C35.4148 26.7609 37.248 28.1947 38.0776 29.905C38.6408 31.0418 38.8149 31.7894 38.8149 32.9569C38.8149 34.5853 38.2926 36.0396 37.2583 37.2583C35.9269 38.8253 34.1961 39.6343 32.1375 39.6446C30.1609 39.6446 28.5735 38.9482 27.1705 37.4529C25.1836 35.3227 24.8457 32.0557 26.3409 29.5158C26.771 28.7784 27.959 27.5904 28.6862 27.1603C30.1405 26.3103 31.8713 26.0235 33.5406 26.3717Z" fill="#FF912B"/>
<path d="M39.3271 7.37405V8.19336H41.3754H43.4237V7.37405V6.55473H41.3754H39.3271V7.37405Z" fill="#FF912B"/>
<path d="M45.0623 7.37405V8.19336H47.1105H49.1588V7.37405V6.55473H47.1105H45.0623V7.37405Z" fill="#FF912B"/>
<path d="M39.3271 10.6511V11.4705H44.243H49.1589V10.6511V9.83183H44.243H39.3271V10.6511Z" fill="#FF912B"/>
<path d="M0 42.6045V43.4238H3.27725H6.55451V42.6045V41.7852H3.27725H0V42.6045Z" fill="#FF912B"/>
<path d="M8.19312 42.6045V43.4238H12.6993H17.2056V42.6045V41.7852H12.6993H8.19312V42.6045Z" fill="#FF912B"/>
<path d="M0 45.8816V46.7009H8.60279H17.2056V45.8816V45.0623H8.60279H0V45.8816Z" fill="#FF912B"/>
</svg>
